<svg width="40" height="40" viewBox="0 0 40 40" fill="none" xmlns="http://www.w3.org/2000/svg">
<rect width="40" height="40" fill="#AAAAAA"/>
<g id="Coin Type">
<rect x="-418.5" y="-367.5" width="1413" height="460" rx="4.5" fill="white"/>
<rect x="-418.5" y="-367.5" width="1413" height="460" rx="4.5" stroke="#9747FF" stroke-dasharray="10 5"/>
<g id="Property 1=Expense, Property 2=Lost">
<g id="Frame 27498">
<circle id="Ellipse 709" cx="20.0029" cy="20" r="20" fill="#4F677E"/>
<g id="Frame 1973341855">
<path id="Vector" d="M15.058 8.01058C16.8473 7.89197 18.1703 9.26142 20.1087 9.18215C21.5809 9.19797 22.7392 8.2697 24.1621 8.04819C26.321 7.71208 26.8976 9.18601 27.5215 10.8537C28.2346 12.7596 29.001 14.6688 29.302 16.674C30.965 16.8961 34.2006 17.4841 35.5017 18.5363C35.7344 18.7245 35.9741 18.9867 35.9982 19.2989C36.0161 19.5332 35.8989 19.7543 35.7508 19.9278C34.3809 21.5321 28.1923 22.2439 25.9748 22.4018C25.6317 22.4433 25.1901 22.4652 24.8378 22.4886C23.9904 22.5445 23.1421 22.5839 22.2932 22.6067C18.9128 22.7175 15.5287 22.5883 12.1665 22.2198C10.4199 22.0187 8.64806 21.7492 6.95853 21.2563C6.17512 21.0276 5.33681 20.7603 4.6627 20.2882C4.37971 20.0899 4.05974 19.8099 4.00708 19.4486C3.97461 19.2259 4.05703 19.0218 4.18983 18.8462C5.15703 17.5677 9.15483 16.8865 10.7009 16.6774C10.7513 16.2394 10.9061 15.6027 11.0172 15.1747C11.4114 13.6644 11.9401 12.1979 12.5197 10.7507C13.0649 9.38925 13.3895 8.1985 15.058 8.01058Z" fill="#2AFF95"/>
<path id="Subtract" fill-rule="evenodd" clip-rule="evenodd" d="M10.0465 23.2935C10.2948 23.3519 10.8576 23.4219 11.1256 23.4585C11.9892 23.5746 12.856 23.6699 13.7242 23.7446C19.1346 24.206 24.5799 24.058 29.9576 23.3042C29.9361 24.2544 29.963 25.2228 29.9527 26.1743C29.9475 26.6645 29.9771 27.2461 29.9195 27.7261C29.7539 29.1067 29.0819 30.1649 28.0172 31.02C26.451 32.2045 24.3613 32.4353 22.5748 31.6206C21.6729 31.2107 20.9348 30.4685 19.8238 30.5601C18.953 30.6321 18.3548 31.1436 17.6334 31.519C16.8832 31.9051 16.0503 32.1039 15.2066 32.0991C13.8036 32.1087 12.4548 31.557 11.4615 30.5659C10.6662 29.7785 10.1723 28.7368 10.066 27.6226C10.0215 27.1231 10.0435 26.4017 10.0435 25.8882L10.0465 23.2935ZM24.6559 26.02C23.7883 26.0682 22.7454 26.3276 22.3072 27.1616C22.7837 28.1026 24.0341 28.3406 24.9928 28.313C25.8917 28.2536 26.814 28.003 27.2848 27.1704C27.001 26.6339 26.5285 26.3591 25.9586 26.186C25.5363 26.0597 25.0963 26.003 24.6559 26.02ZM17.5924 26.9272C17.0067 25.999 15.8024 25.6927 14.7623 25.8003C14.0602 25.8586 13.2635 26.0794 12.7935 26.6411C12.7206 26.7267 12.6589 26.8219 12.61 26.9233C13.0301 27.9039 14.5204 28.1364 15.4547 28.0698C16.3018 27.9784 17.1571 27.7212 17.5924 26.9272Z" fill="#26D0FF"/>
</g>
</g>
</g>
</g>
</svg>
